<svg width="800" height="757" viewBox="0 0 800 757" fill="none" xmlns="http://www.w3.org/2000/svg">
<path fill-rule="evenodd" clip-rule="evenodd" d="M309.393 2.36431C304.871 4.41088 303.699 4.77695 300.199 5.23328C295.74 5.81444 294.848 6.23582 293.48 8.40493C292.723 9.60452 292.239 9.94562 290.999 10.1553C290.151 10.2986 288.832 10.9136 288.067 11.5216C286.452 12.8065 287.097 12.5814 279.259 14.5942C275.881 15.4619 271.477 16.6922 269.471 17.3283C267.465 17.9644 262.629 18.977 258.723 19.5785C254.817 20.18 249.536 21.0285 246.987 21.4637C241.07 22.4743 224.556 24.66 213.427 25.9053C195.832 27.8743 182.741 29.9362 174.273 32.0727C168.284 33.5838 165.34 34.6435 163.717 35.8716C163.084 36.3509 161.994 37.0377 161.295 37.3977C160.596 37.758 159.387 38.6149 158.608 39.3021C157.317 40.4399 148.942 45.5475 140.979 50.0524C139.241 51.0357 136.484 52.3709 134.853 53.0193C130.72 54.6622 126.203 56.8735 120.177 60.2034C117.342 61.7702 113.513 63.7166 111.667 64.5293C107 66.5844 104.016 68.1124 99.9891 70.5081C98.0851 71.6413 94.2849 73.5008 91.5441 74.6412C84.6346 77.5156 61.3595 88.459 58.6414 90.1115C57.4123 90.8586 54.8135 92.0444 52.8662 92.7469C39.5592 97.5476 34.6101 99.5546 27.8046 102.911C23.568 105 18.6449 107.162 16.8646 107.715C12.6218 109.034 8.05572 111.188 5.39901 113.125C4.22401 113.981 2.52888 115.093 1.63141 115.596C0.50593 116.227 0 116.765 0 117.332C0 118.948 1.28478 121.864 4.78368 128.191C6.73754 131.724 12.6509 142.479 17.924 152.092C28.2288 170.877 34.5679 181.926 41.5043 193.192C43.9103 197.101 46.2123 201.076 46.62 202.027C47.0273 202.978 49.9085 208.768 53.0228 214.895C62.5288 233.596 65.9805 241.249 69.9135 252.346C70.9991 255.41 72.0577 258.132 72.2658 258.396C72.8021 259.077 80.0306 259.019 84.9321 258.295C94.3486 256.903 101.111 255.168 106.881 252.663C110.552 251.069 116.521 249.273 118.146 249.273C118.877 249.273 121.299 249.002 123.529 248.671C126.947 248.163 128.178 247.771 131.37 246.174C135.773 243.972 135.447 243.919 139.918 247.551C143.099 250.135 144.148 250.629 147.211 250.984C149.82 251.286 152.192 252.601 152.587 253.964C152.727 254.447 153.82 255.732 155.016 256.818C157.061 258.675 157.188 258.893 157.134 260.467C157.103 261.388 156.034 265.339 154.76 269.247C151.649 278.785 147.658 294.863 146.442 302.756C145.579 308.362 145.454 310.375 145.461 318.505C145.466 323.631 145.634 329.726 145.834 332.05C146.576 340.656 147.428 348.315 148.164 352.985C148.58 355.626 149.53 362.28 150.274 367.773C151.018 373.266 151.965 379.402 152.377 381.409C154.382 391.162 155.395 398.024 155.614 403.337C155.832 408.639 155.793 409.093 154.879 411.781C154.348 413.344 153.614 416.7 153.249 419.239C152.343 425.538 152.385 444.224 153.334 456.504C153.904 463.873 154.037 471.202 154.137 500.678C154.204 520.114 154.365 540.424 154.494 545.811C154.677 553.392 154.604 556.475 154.171 559.447C152.762 569.127 151.246 639.975 151.332 692.16L151.375 718.472L150.353 722.505C149.791 724.723 149.091 727.834 148.799 729.419C148.507 731.003 147.447 734.201 146.443 736.525C143.777 742.701 142.924 745.136 142.701 747.205C142.522 748.864 142.6 749.114 143.473 749.686C145.776 751.196 162.093 750.555 176.384 748.393L185.597 746.999L198.457 747.049C211.289 747.099 225.583 747.538 236.843 748.227C240.115 748.428 248.22 748.806 254.853 749.067L266.914 749.542L268.849 750.874C271.88 752.96 272.483 753.089 289.624 755.329C296.958 756.287 307.374 756.778 316.11 756.578C325.788 756.355 339.418 755.683 340.398 755.38C340.762 755.267 344.647 754.822 349.03 754.391C353.413 753.96 359.286 753.189 362.082 752.677C374.511 750.402 378.271 750.142 398.64 750.148C416.81 750.152 428.675 749.649 439.714 748.406C449.919 747.257 483.588 744.512 494.202 743.964C504.246 743.445 514.785 743.723 518.213 744.595C521.263 745.372 528.272 745.18 530.759 744.252C532.287 743.682 532.741 743.717 540.163 744.974C544.453 745.701 549.949 746.74 552.377 747.282C560.511 749.1 560.624 749.114 564.842 748.826C569.416 748.515 570.542 747.936 571.948 745.179L572.677 743.75L580.05 743.527C586.005 743.347 588.5 743.443 593.027 744.025C599.541 744.863 613.072 748.248 623.106 751.549C628.329 753.268 629.886 753.641 630.664 753.36C631.238 753.153 632.414 753.143 633.498 753.335C635.161 753.63 635.48 753.565 636.619 752.696C638.066 751.591 638.195 751.027 638.598 744.015C638.754 741.287 639.108 738.937 639.523 737.869C640.453 735.476 641.17 728.401 640.925 724.033C640.813 722.03 640.546 717.367 640.331 713.67C639.709 702.944 639.335 640.885 639.847 633.39C640.577 622.709 641.493 614.507 642.27 611.687C643.318 607.887 644.042 602.266 644.321 595.767C644.454 592.692 644.991 586.633 645.515 582.302C646.04 577.971 646.564 571.922 646.68 568.858C646.883 563.532 646.825 562.919 645.343 554.838C642.681 540.328 642.778 541.804 643.29 523.606C643.543 514.587 643.747 503.879 643.743 499.811C643.739 495.228 643.951 490.984 644.3 488.657C645.682 479.448 646.013 473.95 646.429 453.318C646.822 433.853 646.804 431.918 646.22 430.16C645.627 428.371 645.627 428.134 646.227 426.635C646.82 425.15 646.851 421.294 646.63 376.042C646.443 337.643 646.252 324.525 645.748 315.341C644.971 301.181 644.897 282.452 645.591 275.777C645.866 273.137 646.591 269.096 647.202 266.799C648.529 261.814 649.819 259.759 655.836 253.042C658.048 250.573 659.858 248.281 659.858 247.95C659.858 247.618 660.765 246.329 661.874 245.085C662.982 243.841 664.189 242.387 664.556 241.853C665.048 241.138 666.909 240.22 671.657 238.356C675.196 236.965 678.299 235.828 678.553 235.828C678.807 235.829 680.189 236.877 681.624 238.157C684.357 240.596 690.497 244.153 694.136 245.406C697.322 246.502 704.881 247.605 716.67 248.692C722.476 249.228 728.419 249.84 729.877 250.053C733.71 250.612 733.944 250.473 733.944 247.64C733.944 245.895 734.126 245.085 734.654 244.496C735.045 244.06 735.672 242.234 736.049 240.439C736.492 238.327 737.684 235.069 739.421 231.22C749.862 208.079 757.681 191.482 765.027 176.867C769.7 167.572 775.741 154.953 778.452 148.827C781.162 142.7 786.263 131.292 789.787 123.475C796.668 108.21 799.351 101.892 799.749 100.013L800 98.8302L795.474 96.6918C792.984 95.5156 790.083 94.2845 789.028 93.9565C787.972 93.6285 786.417 93.0996 785.573 92.7815C784.728 92.4635 783.406 92.1957 782.633 92.1865C780.533 92.1612 772.297 89.9836 760.046 86.2143C754.029 84.3632 747.638 82.4526 745.843 81.969C742.032 80.9419 730.904 75.9795 724.442 72.426C718.023 68.8952 712.061 66.3981 704.742 64.1733C701.243 63.1097 696.995 61.7284 695.302 61.1034C691.052 59.5354 676.672 52.2795 669.263 47.9651C658.901 41.9306 656.046 40.4114 650.462 37.9615C644.234 35.2293 635.617 30.9714 631.415 28.5503C629.811 27.6261 628.078 26.8698 627.564 26.8698C627.05 26.8698 625.476 26.2575 624.068 25.5089C622.659 24.7606 620.333 23.8963 618.899 23.5883C615.854 22.9345 585.171 20.273 570.418 19.383C564.824 19.0457 556.878 18.5229 552.761 18.2218C548.644 17.9206 542.684 17.5673 539.518 17.4363C535.135 17.2554 530.488 16.6561 520.062 14.9261C512.529 13.6762 504.497 12.21 502.213 11.6676C498.788 10.8544 497.817 10.7538 496.673 11.0934C494.423 11.7606 492.521 11.5831 486.592 10.1527C481.922 9.02604 480.431 8.4806 477.654 6.8819C473.427 4.44814 471.885 4.1589 469.94 5.43609C467.673 6.92608 462.325 9.73743 458.122 11.6499C450.055 15.3202 431.956 19.9933 421.653 21.0662C407.238 22.5673 386.276 22.6188 379.831 21.1691C377.931 20.7416 372.749 20.0344 368.315 19.5977C358.977 18.6774 349.175 16.6246 342.788 14.2519C337.17 12.1647 326.463 7.44771 324.22 6.07142C323.191 5.44031 320.875 3.81166 319.075 2.45266C317.274 1.09365 315.525 -0.0102987 315.188 7.24811e-05C314.851 0.0100595 312.243 1.07406 309.393 2.36431Z" fill="#FF40C9"/>
</svg>
