<svg width="2084" height="1971" viewBox="0 0 2084 1971" fill="none" xmlns="http://www.w3.org/2000/svg">
<path fill-rule="evenodd" clip-rule="evenodd" d="M805.968 6.15903C794.19 11.4903 791.136 12.4439 782.018 13.6327C770.404 15.1466 768.079 16.2443 764.514 21.8948C762.542 25.0198 761.283 25.9083 758.051 26.4547C755.845 26.8279 752.408 28.4299 750.416 30.0139C746.207 33.361 747.888 32.7746 727.471 38.0179C718.671 40.2783 707.197 43.4833 701.972 45.1403C696.747 46.7974 684.147 49.435 673.973 51.002C663.798 52.569 650.042 54.7793 643.402 55.913C627.987 58.5457 584.967 64.2392 555.978 67.4832C510.141 72.6124 476.041 77.9838 453.982 83.5493C438.38 87.4857 430.711 90.2464 426.483 93.4454C424.833 94.6942 421.994 96.4833 420.173 97.4209C418.353 98.3595 415.203 100.592 413.173 102.382C409.811 105.346 387.994 118.651 367.251 130.386C362.723 132.948 355.542 136.426 351.292 138.115C340.526 142.395 328.758 148.156 313.06 156.83C305.675 160.911 295.7 165.982 290.893 168.099C278.736 173.452 270.961 177.433 260.471 183.674C255.512 186.625 245.612 191.47 238.472 194.44C220.473 201.928 159.842 230.436 152.761 234.74C149.559 236.687 142.789 239.776 137.716 241.606C103.052 254.112 90.1594 259.34 72.4311 268.082C61.3945 273.525 48.57 279.156 43.9322 280.598C32.8797 284.033 20.9852 289.646 14.0644 294.69C11.0036 296.921 6.58773 299.818 4.24983 301.128C1.31795 302.771 0 304.173 0 305.649C0 309.859 3.34686 317.457 12.4615 333.936C17.5513 343.14 32.9557 371.158 46.6921 396.199C73.536 445.135 90.0494 473.918 108.119 503.266C114.386 513.447 120.383 523.804 121.445 526.28C122.506 528.757 130.012 543.841 138.124 559.801C162.887 608.517 171.879 628.453 182.125 657.362C184.953 665.342 187.71 672.434 188.252 673.122C189.649 674.896 208.48 674.746 221.248 672.859C245.778 669.231 263.393 664.711 278.424 658.186C287.988 654.035 303.538 649.357 307.772 649.357C309.675 649.357 315.983 648.65 321.792 647.788C330.696 646.465 333.903 645.443 342.219 641.284C353.689 635.547 352.84 635.41 364.485 644.87C372.773 651.602 375.505 652.888 383.485 653.813C390.28 654.6 396.459 658.025 397.489 661.576C397.854 662.835 400.702 666.181 403.818 669.011C409.144 673.847 409.475 674.418 409.335 678.517C409.254 680.916 406.47 691.208 403.149 701.389C395.045 726.234 384.648 768.117 381.483 788.679C379.233 803.284 378.907 808.527 378.927 829.704C378.94 843.059 379.377 858.937 379.899 864.991C381.83 887.409 384.05 907.361 385.967 919.525C387.051 926.405 389.525 943.74 391.464 958.049C393.403 972.358 395.868 988.343 396.943 993.571C402.166 1018.98 404.804 1036.85 405.375 1050.69C405.944 1064.5 405.841 1065.69 403.46 1072.69C402.076 1076.76 400.165 1085.5 399.214 1092.12C396.853 1108.53 396.964 1157.2 399.436 1189.19C400.919 1208.39 401.266 1227.48 401.528 1304.27C401.701 1354.9 402.12 1407.8 402.458 1421.84C402.934 1441.59 402.744 1449.62 401.616 1457.36C397.944 1482.58 393.995 1667.14 394.22 1803.08L394.333 1871.62L391.67 1882.13C390.205 1887.9 388.383 1896.01 387.622 1900.14C386.86 1904.26 384.099 1912.59 381.485 1918.65C374.539 1934.74 372.316 1941.08 371.736 1946.47C371.271 1950.79 371.474 1951.44 373.747 1952.93C379.747 1956.87 422.251 1955.2 459.481 1949.56L483.481 1945.93L516.979 1946.06C550.407 1946.19 587.644 1947.34 616.975 1949.13C625.5 1949.65 646.613 1950.64 663.893 1951.32L695.312 1952.56L700.352 1956.03C708.247 1961.46 709.817 1961.8 754.47 1967.63C773.577 1970.13 800.71 1971.41 823.467 1970.88C848.677 1970.31 884.183 1968.56 886.736 1967.76C887.686 1967.47 897.806 1966.31 909.224 1965.19C920.642 1964.07 935.941 1962.06 943.223 1960.72C975.602 1954.8 985.395 1954.12 1038.46 1954.13C1085.79 1954.15 1116.7 1952.84 1145.45 1949.6C1172.04 1946.6 1259.75 1939.45 1287.4 1938.03C1313.56 1936.68 1341.02 1937.4 1349.95 1939.67C1357.89 1941.7 1376.15 1941.19 1382.63 1938.78C1386.61 1937.29 1387.79 1937.38 1407.13 1940.66C1418.3 1942.55 1432.62 1945.26 1438.94 1946.67C1460.13 1951.41 1460.43 1951.44 1471.41 1950.69C1483.33 1949.88 1486.26 1948.37 1489.92 1941.19L1491.82 1937.47L1511.03 1936.89C1526.54 1936.42 1533.04 1936.67 1544.84 1938.19C1561.81 1940.37 1597.05 1949.19 1623.19 1957.79C1636.8 1962.26 1640.85 1963.23 1642.88 1962.5C1644.37 1961.96 1647.44 1961.94 1650.26 1962.44C1654.6 1963.21 1655.43 1963.04 1658.39 1960.77C1662.16 1957.9 1662.5 1956.42 1663.55 1938.16C1663.95 1931.05 1664.88 1924.93 1665.96 1922.15C1668.38 1915.92 1670.25 1897.48 1669.61 1886.11C1669.32 1880.89 1668.62 1868.74 1668.06 1859.11C1666.44 1831.17 1665.47 1669.5 1666.8 1649.98C1668.7 1622.16 1671.09 1600.79 1673.11 1593.45C1675.84 1583.55 1677.73 1568.9 1678.46 1551.97C1678.8 1543.96 1680.2 1528.18 1681.57 1516.9C1682.93 1505.62 1684.3 1489.86 1684.6 1481.88C1685.13 1468 1684.98 1466.4 1681.12 1445.35C1674.18 1407.55 1674.44 1411.4 1675.77 1363.99C1676.43 1340.5 1676.96 1312.61 1676.95 1302.01C1676.94 1290.07 1677.49 1279.01 1678.4 1272.95C1682 1248.96 1682.87 1234.64 1683.95 1180.89C1684.97 1130.19 1684.92 1125.15 1683.4 1120.57C1681.86 1115.91 1681.86 1115.29 1683.42 1111.38C1684.97 1107.52 1685.05 1097.47 1684.47 979.59C1683.98 879.559 1683.49 845.388 1682.17 821.464C1680.15 784.577 1679.96 735.789 1681.77 718.4C1682.48 711.521 1684.37 700.996 1685.96 695.011C1689.42 682.026 1692.78 676.672 1708.45 659.175C1714.22 652.743 1718.93 646.773 1718.93 645.909C1718.93 645.044 1721.29 641.686 1724.18 638.446C1727.07 635.206 1730.21 631.418 1731.17 630.028C1732.45 628.164 1737.3 625.774 1749.67 620.916C1758.89 617.294 1766.97 614.332 1767.63 614.333C1768.29 614.334 1771.89 617.064 1775.63 620.4C1782.75 626.753 1798.75 636.018 1808.23 639.282C1816.52 642.137 1836.22 645.01 1866.92 647.843C1882.05 649.239 1897.53 650.834 1901.33 651.387C1911.31 652.844 1911.92 652.483 1911.92 645.101C1911.92 640.555 1912.4 638.447 1913.77 636.913C1914.79 635.777 1916.43 631.02 1917.41 626.343C1918.56 620.843 1921.67 612.355 1926.19 602.328C1953.39 542.047 1973.76 498.81 1992.9 460.739C2005.07 436.524 2020.8 403.654 2027.87 387.694C2034.93 371.734 2048.22 342.015 2057.4 321.653C2075.32 281.886 2082.31 265.428 2083.35 260.535L2084 257.453L2072.21 251.882C2065.72 248.818 2058.17 245.611 2055.42 244.757C2052.67 243.902 2048.62 242.524 2046.42 241.696C2044.22 240.867 2040.77 240.17 2038.76 240.146C2033.29 240.08 2011.83 234.407 1979.92 224.588C1964.25 219.766 1947.6 214.789 1942.92 213.529C1932.99 210.854 1904 197.927 1887.17 188.67C1870.45 179.472 1854.92 172.967 1835.85 167.171C1826.74 164.401 1815.67 160.802 1811.26 159.174C1800.19 155.09 1762.73 136.188 1743.43 124.949C1716.44 109.229 1709 105.272 1694.45 98.8898C1678.23 91.7724 1655.78 80.6805 1644.84 74.3735C1640.66 71.966 1636.14 69.9958 1634.8 69.9958C1633.46 69.9958 1629.37 68.4008 1625.7 66.4506C1622.03 64.5014 1615.97 62.25 1612.23 61.4475C1604.3 59.7444 1524.37 52.8111 1485.94 50.4927C1471.37 49.6141 1450.67 48.2523 1439.94 47.4678C1429.22 46.6833 1413.69 45.7627 1405.44 45.4215C1394.03 44.9502 1381.92 43.3892 1354.76 38.8824C1335.14 35.6264 1314.21 31.807 1308.26 30.3941C1299.34 28.2758 1296.81 28.0136 1293.83 28.8982C1287.97 30.6363 1283.02 30.174 1267.57 26.4477C1255.41 23.5128 1251.52 22.092 1244.29 17.9274C1233.28 11.5874 1229.26 10.8339 1224.19 14.161C1218.29 18.0424 1204.36 25.366 1193.41 30.3481C1172.39 39.9091 1125.25 52.0826 1098.41 54.8774C1060.86 58.7878 1006.25 58.9219 989.46 55.1456C984.51 54.0319 971.011 52.1897 959.461 51.052C935.136 48.6545 909.601 43.3072 892.964 37.1263C878.329 31.6889 850.437 19.4013 844.592 15.816C841.912 14.172 835.88 9.92938 831.19 6.38917C826.5 2.84896 821.943 -0.026828 821.065 0.000188813C820.186 0.026205 813.392 2.79793 805.968 6.15903Z" fill="#FF40C9"/>
</svg>
