<svg xmlns="http://www.w3.org/2000/svg" width="100" height="100" viewBox="0 0 100 100" fill="none">
<rect width="100" height="100" rx="50" fill="#2C2C2C"/>
<path d="M56.5214 19.8714C56.5214 19.2905 56.8158 19 57.4046 19H64.1168C64.7056 19 65 19.2905 65 19.8714V79.1286C65 79.7095 64.7056 80 64.1168 80H57.4046C56.8158 80 56.5214 79.7095 56.5214 79.1286V53.4214C56.5214 53.189 56.4036 53.0729 56.1681 53.0729H42.8319C42.5964 53.0729 42.4786 53.189 42.4786 53.4214V79.1286C42.4786 79.7095 42.1842 80 41.5954 80H34.8832C34.2944 80 34 79.7095 34 79.1286V19.8714C34 19.2905 34.2944 19 34.8832 19H41.5954C42.1842 19 42.4786 19.2905 42.4786 19.8714V45.4914C42.4786 45.7238 42.5964 45.84 42.8319 45.84H56.1681C56.4036 45.84 56.5214 45.7238 56.5214 45.4914V19.8714Z" fill="white"/>
</svg>